<?xml version="1.0" encoding="UTF-8"?>
<svg id="uuid-c17ec71f-7e8b-4950-8a00-68045dae774a" data-name="Layer 1" xmlns="http://www.w3.org/2000/svg" viewBox="0 0 400 400">
  <defs>
    <style>
      .uuid-95460f1b-d565-4410-b40b-7046e92b963a {
        fill: #01b3e4;
      }

      .uuid-95460f1b-d565-4410-b40b-7046e92b963a, .uuid-e26aea92-aa9b-472d-8823-fa867223e001 {
        stroke-width: 0px;
      }

      .uuid-e26aea92-aa9b-472d-8823-fa867223e001 {
        fill: #fefefe;
      }
    </style>
  </defs>
  <path class="uuid-e26aea92-aa9b-472d-8823-fa867223e001" d="M400,400H0V0c133.33,0,266.67,0,400,0v400ZM204.62,358.69c.17.03.33.05.5.08.25-.96.61-1.9.72-2.88,1.06-9.69,2.12-19.38,3.1-29.09,1.12-11.13,2.16-22.26,3.24-33.39,1.15-11.78,2.3-23.55,3.47-35.32.84-8.54,1.79-17.07,2.54-25.61.81-9.32,1.54-18.65,2.12-27.99.25-4.08.09-8.2.06-12.3-.13-19.13-.18-38.27-.46-57.4-.13-8.97-.53-17.95-1.13-26.9-.91-13.69-1.91-27.37-3.23-41.02-.92-9.58-2.54-19.08-5.43-28.3-1.45-4.6-3.01-9.18-6.53-12.72-2.57-2.59-4.59-2.57-7.18,0-2.85,2.83-4.43,6.42-5.67,10.13-5.01,15.06-6.55,30.73-7.9,46.41-.76,8.87-1.26,17.78-1.7,26.67-.59,11.83-1.28,23.66-1.43,35.5-.24,19.2-.24,38.41.01,57.61.11,8.63.93,17.26,1.68,25.87,1,11.53,2.24,23.03,3.37,34.55.84,8.61,1.67,17.22,2.51,25.82.85,8.67,1.75,17.34,2.56,26.01.67,7.1,1.2,14.21,1.87,21.31.5,5.22,1.08,10.42,1.73,15.62.32,2.58.88,5.13,1.34,7.69.26-.03.51-.06.77-.09,0-3.96.01-7.91,0-11.87-.04-10.93-.1-21.86-.14-32.79-.01-3.92,1.74-6.19,4.7-6.16,2.85.03,4.5,2.29,4.5,6.13,0,14,0,27.99.01,41.99,0,.81,0,1.62,0,2.42ZM50.3,261.52c1.09-.49,1.81-.79,2.5-1.14,31.32-15.48,62.63-30.97,93.97-46.4,1.48-.73,3.17-1.23,4.81-1.41,7.75-.86,15.51-1.66,23.29-2.27,2.07-.16,2.53-.82,2.52-2.78-.07-20.63-.04-41.26-.05-61.89,0-.73-.1-1.47-.18-2.54-.88.52-1.44.82-1.96,1.17-17.39,11.66-34.79,23.3-52.16,34.99-23.47,15.79-46.91,31.63-70.42,47.37-1.87,1.25-2.54,2.62-2.53,4.77.08,9.24.04,18.48.06,27.73,0,.69.09,1.38.15,2.4ZM222.77,142.84c-.05,1.2-.11,1.83-.11,2.46-.02,4.49-.04,8.98-.03,13.48,0,16.4.02,32.81.03,49.21,0,1-.29,2.06,1.38,2.21,7.96.72,15.92,1.5,23.87,2.35,1.59.17,3.23.5,4.69,1.14,3.16,1.37,6.21,2.98,9.31,4.51,28.29,13.99,56.57,27.98,84.87,41.97.9.45,1.84.81,2.81,1.23.14-.41.25-.59.26-.77.02-10.29.07-20.57-.02-30.86,0-.83-.8-1.9-1.53-2.44-2.62-1.92-5.38-3.64-8.08-5.46-21.9-14.75-43.8-29.51-65.71-44.27-14.51-9.77-29.03-19.54-43.55-29.31-2.57-1.73-5.16-3.44-8.18-5.45ZM261.99,361.35c.15-.45.29-.69.29-.94.01-5.53.06-11.06-.05-16.59-.01-.65-.74-1.52-1.37-1.89-15.19-9.07-30.4-18.09-45.62-27.11-.8-.47-1.67-.84-2.74-1.37-.34,3.69-.64,7.05-.97,10.41-.84,8.54-1.68,17.08-2.55,25.61-.14,1.34.25,1.94,1.69,2.2,9.27,1.7,18.53,3.53,27.79,5.29,7.79,1.48,15.58,2.92,23.53,4.4ZM187.46,313.44c-.91.45-1.56.71-2.15,1.07-2.52,1.49-5.02,3.01-7.53,4.51-12.86,7.63-25.74,15.25-38.57,22.94-.67.4-1.29,1.49-1.3,2.27-.12,5.14-.07,10.28-.06,15.42,0,.5.08,1.01.13,1.59.49-.04.87-.04,1.24-.11,16.55-3.13,33.09-6.29,49.65-9.35,1.82-.34,2.33-.99,2.14-2.8-.9-8.53-1.67-17.07-2.5-25.61-.31-3.21-.67-6.42-1.04-9.93ZM197.77,342.85h-.01c0,9.69,0,19.37,0,29.06,0,2.43.67,3.44,2.21,3.47,1.57.02,2.26-1,2.27-3.39.01-3.57.02-7.14,0-10.71-.04-8.64-.12-17.29-.13-25.93,0-7.41.1-14.82.03-22.23,0-.85-.67-1.99-1.38-2.44-.51-.32-1.84.06-2.38.57-.5.47-.59,1.54-.59,2.34-.04,9.75-.02,19.5-.02,29.26ZM269.13,171.52c0-6.06.02-11.89-.06-17.72,0-.33-.86-.91-1.32-.92-6.25-.06-12.49-.05-18.74-.02-.44,0-1.08.24-1.28.57-.68,1.15.04,4.08,1.18,4.85,6.25,4.22,12.51,8.42,18.78,12.61.35.24.79.35,1.44.63ZM130.85,171.83c1.82-1.19,3.26-2.12,4.68-3.08,5.17-3.48,10.33-6.96,15.49-10.46,1.22-.82,2.01-3.17,1.2-4.62-.32-.58-1.72-.77-2.64-.78-5.65-.07-11.3-.02-16.95-.06-1.3-.01-1.91.35-1.82,1.77.11,1.68.03,3.38.03,5.06,0,3.88,0,7.75,0,12.17ZM79.32,207.12c.84-.51,1.39-.82,1.92-1.18,5.72-3.84,11.39-7.76,17.19-11.47,1.86-1.19,2.51-2.56,2.31-4.65-.1-1.06-.38-1.49-1.49-1.49-6.31.04-12.62.02-18.94.04-.31,0-.61.15-.99.25v18.49ZM320.68,188.36c-6.93,0-13.62-.02-20.3.04-.36,0-.99.62-1.04,1.01-.2,1.57-.08,2.89,1.6,3.96,5.52,3.53,10.89,7.3,16.34,10.95,1.04.7,2.15,1.28,3.4,2.01v-17.99ZM152.19,150.49c.32-3.53-.84-5.5-3.38-5.56-4.8-.12-9.61-.11-14.41-.03-1.98.03-3.3,1.53-3.56,3.49-.22,1.62.24,2.34,2.06,2.31,5.78-.1,11.56-.04,17.34-.05.64,0,1.27-.1,1.96-.16ZM247.82,150.58c.74.04,1.38.1,2.01.1,5.59,0,11.17,0,16.76,0,2.61,0,3.28-1.02,2.25-3.45-.68-1.6-1.91-2.37-3.67-2.36-4.22.02-8.44,0-12.67,0-3.9,0-5.21,1.53-4.69,5.71ZM100.52,185.89c.53-3.72-.91-5.48-4.43-5.49-4.22-.01-8.45,0-12.67.02-3.35.02-4.81,2.09-3.84,5.47h20.94ZM320.53,185.99c.52-3.37-.53-5.44-2.96-5.51-4.94-.14-9.88-.13-14.82-.02-2.16.05-3.93,2.57-3.39,4.62.1.38.78.87,1.2.87,6.62.05,13.25.04,19.98.04Z"/>
  <path class="uuid-95460f1b-d565-4410-b40b-7046e92b963a" d="M204.62,358.69c0-.81,0-1.62,0-2.42,0-14-.01-27.99-.01-41.99,0-3.84-1.65-6.1-4.5-6.13-2.96-.04-4.71,2.23-4.7,6.16.04,10.93.1,21.86.14,32.79.02,3.96,0,7.91,0,11.87-.26.03-.51.06-.77.09-.45-2.56-1.01-5.11-1.34-7.69-.65-5.2-1.23-10.41-1.73-15.62-.68-7.1-1.21-14.21-1.87-21.31-.81-8.67-1.71-17.34-2.56-26.01-.84-8.61-1.67-17.22-2.51-25.82-1.13-11.52-2.37-23.02-3.37-34.55-.74-8.61-1.57-17.24-1.68-25.87-.25-19.2-.25-38.41-.01-57.61.15-11.84.84-23.67,1.43-35.5.44-8.9.94-17.8,1.7-26.67,1.35-15.68,2.89-31.35,7.9-46.41,1.24-3.72,2.82-7.3,5.67-10.13,2.59-2.57,4.61-2.59,7.18,0,3.52,3.54,5.08,8.12,6.53,12.72,2.9,9.22,4.51,18.73,5.43,28.3,1.31,13.65,2.32,27.34,3.23,41.02.6,8.95,1,17.93,1.13,26.9.28,19.13.33,38.27.46,57.4.03,4.1.19,8.21-.06,12.3-.58,9.34-1.31,18.67-2.12,27.99-.75,8.55-1.7,17.08-2.54,25.61-1.16,11.77-2.32,23.55-3.47,35.32-1.08,11.13-2.12,22.27-3.24,33.39-.98,9.7-2.04,19.39-3.1,29.09-.11.97-.47,1.92-.72,2.88-.17-.03-.33-.05-.5-.08Z"/>
  <path class="uuid-95460f1b-d565-4410-b40b-7046e92b963a" d="M50.3,261.52c-.07-1.02-.15-1.71-.15-2.4-.01-9.24.03-18.49-.06-27.73-.02-2.16.66-3.52,2.53-4.77,23.51-15.74,46.94-31.58,70.42-47.37,17.37-11.69,34.77-23.33,52.16-34.99.52-.35,1.08-.64,1.96-1.17.08,1.08.18,1.81.18,2.54,0,20.63-.02,41.26.05,61.89,0,1.96-.45,2.62-2.52,2.78-7.77.6-15.54,1.41-23.29,2.27-1.64.18-3.33.68-4.81,1.41-31.34,15.44-62.65,30.93-93.97,46.4-.69.34-1.41.64-2.5,1.14Z"/>
  <path class="uuid-95460f1b-d565-4410-b40b-7046e92b963a" d="M222.77,142.84c3.01,2.01,5.6,3.72,8.18,5.45,14.52,9.77,29.03,19.54,43.55,29.31,21.9,14.75,43.8,29.51,65.71,44.27,2.7,1.82,5.46,3.54,8.08,5.46.73.54,1.52,1.61,1.53,2.44.09,10.28.04,20.57.02,30.86,0,.18-.11.35-.26.77-.96-.42-1.9-.79-2.81-1.23-28.29-13.99-56.58-27.98-84.87-41.97-3.09-1.53-6.15-3.14-9.31-4.51-1.46-.63-3.1-.97-4.69-1.14-7.95-.85-15.91-1.63-23.87-2.35-1.67-.15-1.38-1.21-1.38-2.21-.02-16.4-.03-32.81-.03-49.21,0-4.49.02-8.98.03-13.48,0-.63.05-1.25.11-2.46Z"/>
  <path class="uuid-95460f1b-d565-4410-b40b-7046e92b963a" d="M261.99,361.35c-7.95-1.48-15.74-2.92-23.53-4.4-9.26-1.76-18.52-3.58-27.79-5.29-1.44-.26-1.83-.86-1.69-2.2.87-8.53,1.72-17.07,2.55-25.61.33-3.36.63-6.71.97-10.41,1.07.53,1.94.9,2.74,1.37,15.22,9.02,30.43,18.04,45.62,27.11.63.38,1.36,1.24,1.37,1.89.11,5.53.06,11.06.05,16.59,0,.24-.15.48-.29.94Z"/>
  <path class="uuid-95460f1b-d565-4410-b40b-7046e92b963a" d="M187.46,313.44c.37,3.51.73,6.72,1.04,9.93.83,8.54,1.6,17.08,2.5,25.61.19,1.81-.32,2.46-2.14,2.8-16.56,3.06-33.1,6.22-49.65,9.35-.37.07-.75.07-1.24.11-.05-.58-.13-1.09-.13-1.59,0-5.14-.06-10.28.06-15.42.02-.78.64-1.87,1.3-2.27,12.83-7.69,25.7-15.31,38.57-22.94,2.52-1.49,5.02-3.02,7.53-4.51.59-.35,1.24-.62,2.15-1.07Z"/>
  <path class="uuid-95460f1b-d565-4410-b40b-7046e92b963a" d="M197.77,342.85c0-9.75-.01-19.5.02-29.26,0-.81.09-1.87.59-2.34.54-.51,1.87-.89,2.38-.57.71.44,1.37,1.59,1.38,2.44.07,7.41-.04,14.82-.03,22.23.01,8.64.09,17.29.13,25.93.02,3.57,0,7.14,0,10.71,0,2.39-.7,3.41-2.27,3.39-1.53-.02-2.2-1.04-2.21-3.47,0-9.69,0-19.37,0-29.06h.01Z"/>
  <path class="uuid-95460f1b-d565-4410-b40b-7046e92b963a" d="M269.13,171.52c-.65-.28-1.08-.39-1.44-.63-6.27-4.19-12.53-8.39-18.78-12.61-1.13-.77-1.86-3.7-1.18-4.85.2-.33.84-.57,1.28-.57,6.25-.04,12.49-.04,18.74.02.46,0,1.31.59,1.32.92.08,5.83.06,11.66.06,17.72Z"/>
  <path class="uuid-95460f1b-d565-4410-b40b-7046e92b963a" d="M130.85,171.83c0-4.42,0-8.29,0-12.17,0-1.69.08-3.38-.03-5.06-.09-1.42.52-1.78,1.82-1.77,5.65.05,11.3,0,16.95.06.91.01,2.31.2,2.64.78.81,1.45.01,3.8-1.2,4.62-5.16,3.49-10.32,6.98-15.49,10.46-1.42.96-2.87,1.89-4.68,3.08Z"/>
  <path class="uuid-95460f1b-d565-4410-b40b-7046e92b963a" d="M79.32,207.12v-18.49c.38-.1.69-.25.99-.25,6.31-.02,12.62,0,18.94-.04,1.11,0,1.39.42,1.49,1.49.2,2.09-.46,3.46-2.31,4.65-5.8,3.72-11.47,7.64-17.19,11.47-.53.35-1.08.67-1.92,1.18Z"/>
  <path class="uuid-95460f1b-d565-4410-b40b-7046e92b963a" d="M320.68,188.36v17.99c-1.25-.74-2.37-1.32-3.4-2.01-5.45-3.65-10.82-7.42-16.34-10.95-1.68-1.07-1.79-2.4-1.6-3.96.05-.39.67-1.01,1.04-1.01,6.69-.06,13.37-.04,20.3-.04Z"/>
  <path class="uuid-95460f1b-d565-4410-b40b-7046e92b963a" d="M152.19,150.49c-.69.06-1.33.16-1.96.16-5.78.01-11.56-.05-17.34.05-1.82.03-2.28-.68-2.06-2.31.27-1.97,1.58-3.46,3.56-3.49,4.8-.08,9.61-.09,14.41.03,2.54.07,3.7,2.03,3.38,5.56Z"/>
  <path class="uuid-95460f1b-d565-4410-b40b-7046e92b963a" d="M247.82,150.58c-.52-4.18.79-5.71,4.69-5.71,4.22,0,8.44.02,12.67,0,1.76,0,2.99.77,3.67,2.36,1.03,2.43.36,3.45-2.25,3.45-5.59,0-11.17,0-16.76,0-.64,0-1.28-.06-2.01-.1Z"/>
  <path class="uuid-95460f1b-d565-4410-b40b-7046e92b963a" d="M100.52,185.89h-20.94c-.97-3.38.49-5.45,3.84-5.47,4.22-.02,8.45-.03,12.67-.02,3.52.01,4.96,1.77,4.43,5.49Z"/>
  <path class="uuid-95460f1b-d565-4410-b40b-7046e92b963a" d="M320.53,185.99c-6.73,0-13.35.02-19.98-.04-.42,0-1.1-.49-1.2-.87-.53-2.05,1.23-4.57,3.39-4.62,4.94-.11,9.88-.12,14.82.02,2.43.07,3.49,2.14,2.96,5.51Z"/>
</svg>